<?xml version="1.0" encoding="UTF-8"?>
<svg id="Layer_1"
    xmlns="http://www.w3.org/2000/svg" viewBox="0 0 596.33 308.31">
    <defs>
        <style>.cls-1{fill:#315eff;fill-rule:evenodd;}</style>
    </defs>
    <path class="cls-1" d="M191.65,146.14l191.79,111.35c33.79,17.33,65.13,21.23,101.09,7.07,42.89-16.9,72.21-51.84,75.68-98.49,2.89-37.12-11.84-75.24-39.14-100.66-32.49-30.47-75.68-37.4-117.85-26.43-7.65,1.59-20.8,7.08-30.62,10.69-4.19,1.45-7.65,2.74-9.82,3.03-16.75,1.73-25.85-20.65-10.83-29.46C384.16,4.32,427.92-1.61,457.09,1.29c35.24,3.9,68.45,19.21,93.87,44.19,30.18,29.89,45.78,70.04,44.63,112.5-1.59,60.22-35.53,111.78-90.7,136.33-33.79,14.87-71.92,17.62-107.02,7.08-12.57-3.76-20.08-8.23-31.48-14.59l-193.38-108.46-9.68,16.61-23.1-57.48,61.38-8.38-9.97,17.04Z"/>
    <path class="cls-1" d="M404.67,162.02L213.02,50.82c-33.94-17.33-65.28-21.23-101.24-7.07-42.75,16.9-72.07,51.85-75.68,98.49-2.89,37.12,11.84,75.24,39.14,100.66,32.64,30.47,75.68,37.4,117.99,26.43,7.51-1.59,20.8-7.08,30.47-10.69,4.19-1.45,7.65-2.74,9.97-3.03,16.75-1.73,25.85,20.65,10.69,29.46-32.21,18.92-75.96,24.84-105.14,21.95-35.24-3.9-68.45-19.21-93.73-44.19C15.17,232.93-.29,192.79,.72,150.32,2.31,90.1,36.25,38.54,91.56,13.99,125.21-.88,163.34-3.63,198.43,6.91c12.71,3.76,20.22,8.09,31.48,14.44l193.38,108.61,9.82-16.75,23.11,57.62-61.52,8.38,9.97-17.19Z"/>
</svg>
